<svg width="395" height="118" xmlns="http://www.w3.org/2000/svg">

 <g>
  <title>background</title>
  <rect fill="none" id="canvas_background" height="120" width="397" y="-1" x="-1"/>
 </g>
 <g>
  <title>Layer 1</title>
  <g fill="#000000" id="SvgjsG2626">
   <path id="svg_1" fill=" rgb(0, 0, 0)" d="m154.502228,45.836975c-0.529999,6.730011 -7.199982,7.680008 -12.769989,7.680008c1.109985,-4.610001 2.169983,-9.220001 3.389984,-13.820007c2.279999,-0.479996 4.610016,-0.589996 6.570007,0.210007c2.389984,1.059998 3.019989,3.550003 2.809998,5.929993zm0.899994,-9.479996c-4.869995,-2.389999 -10.970001,-1.169998 -16,0.210007c-1.169983,0.319992 -2.329987,1.639999 -1.639984,2.909988c0.419983,0.960007 1.429993,1.270004 2.440002,1.270004c-2.490021,9.649994 -4.51001,19.399994 -7.100006,29.089996c-0.800018,3.180008 3.329987,5.300003 4.230011,1.590012c1.219971,-4.5 2.339996,-9.060013 3.399994,-13.560013c1.109985,0 2.329987,-0.049988 3.48999,-0.110001c0.110016,0.110001 0.209991,0.160004 0.369995,0.320007c-0.369995,-0.259995 0.27002,0.419998 0.369995,0.419998c0.320007,0.430008 0.590027,0.960007 0.800018,1.380005c0.790009,1.330002 1.380005,2.699997 1.959991,4.139999c1.109985,2.639999 2.119995,5.349991 3.339996,8.050003c1.160004,2.48999 6.670013,1.319992 5.240021,-1.800003c-1.320007,-2.860001 -2.380005,-5.990005 -3.650024,-8.960007c-0.73999,-1.529999 -1.48999,-3.119995 -2.48999,-4.550003c5.299988,-1.429993 9.640015,-4.610001 10.169983,-10.869995c0.320007,-3.970001 -1.109985,-7.779999 -4.929993,-9.529999zm23.210022,12.020004c-0.790009,3.929993 -1.540009,7.849991 -2.170013,11.769989c-0.269989,1.430008 -0.529999,2.860001 -0.73999,4.240005c-1.279999,1.059998 -2.649994,2.009995 -4.080017,2.860001c-1.009979,0.630005 -4.190002,2.490005 -5.299988,1.529999c-0.640015,-0.580002 -0.429993,-2.119995 -0.429993,-2.959991c0,-1.700012 0.269989,-3.389999 0.589996,-5.040009c0.630005,-3.860001 1.690002,-7.729996 2.539978,-11.599991c0.320007,-1.220001 -0.269989,-2.970001 -1.589996,-3.180008c-1.539978,-0.259995 -2.379974,1.220001 -2.649994,2.440002c-1.059998,4.660004 -2.329987,9.270004 -2.970001,13.990005c-0.369995,3.329987 -1.059998,8.529999 1.700012,11.019989c2.329987,2.169998 5.829987,0.900009 8.319977,-0.319992c1.110016,-0.529999 2.170013,-1.220001 3.180023,-1.910004c0.209991,2.649994 5.720001,2.229996 5.720001,-0.580002c0.109985,-3.229996 0.849976,-6.569992 1.320007,-9.75c0.639984,-3.970001 1.429993,-7.899994 2.22998,-11.759995c0.690002,-3.020004 -5.029999,-3.389999 -5.669983,-0.75zm27.759979,7.690002c-0.309998,4.23999 -1.429993,9.479996 -5.350006,11.919998c-1.899994,1.169998 -4.869995,1.059998 -7.519989,0.369995c0.899994,-4.660004 1.910004,-9.270004 2.970001,-13.830002c1.209991,-0.789993 7.26001,-5.770004 9,-4.029999c1.380005,1.220001 1.01001,3.930008 0.899994,5.570007zm3.930023,-8.639999c-1.590027,-1.850006 -4.350006,-1.960007 -6.52002,-1.540009c-2.070007,0.430008 -3.97998,1.220001 -5.880005,2.339996c0.840027,-3.399994 1.529999,-6.789993 2.119995,-10.229996c0.26001,-1.429993 -1.279968,-2.119995 -2.440002,-1.910004c-1.47998,0.270004 -2.649994,1.380005 -2.919983,2.76001c-0.100006,2.330002 -5.609985,24.690002 -6.25,28.769989c-0.420013,0.210007 -0.850006,0.480011 -1.269989,0.850006c-0.740021,0.839996 -1.060028,2.589996 0.319977,3.119995c5.029999,1.910004 10.700012,2.76001 15.679993,0.160004c5.990021,-3.179993 8.160034,-9.910004 8.740021,-16.270004c0.269989,-2.75 0.320007,-5.769989 -1.579987,-8.049988zm23.099976,-0.900009c-2.649994,5.300003 -5.139984,10.699997 -7.899994,16.050003c-1.110016,-4.919998 -2.220001,-9.850006 -2.75,-14.830002c-0.369995,-2.860001 -6.100006,-1.959991 -5.730011,0.899994c0.800018,7.050003 2.600006,14.040009 4.300018,20.930008c0.049988,0.210007 0.049988,0.319992 0.209991,0.479996c-1.48999,2.380005 -2.329987,5.029999 -3.660004,6.990005c-0.73999,1.110001 -2.809998,0.529999 -3.649994,0.529999c-0.690002,0 -1.330017,0.210007 -1.75,0.850006c-0.899994,1 -0.059998,2.649994 1,3.119995c4.459991,2.020004 7.419983,-0.160004 9.970001,-3.809998c2.170013,-3.180008 3.970001,-6.680008 5.769989,-10.230011c3.340027,-6.25 6.52002,-12.769989 9.700012,-19.179993c1.220001,-2.490005 -4.190002,-4.399994 -5.51001,-1.800003zm18.119995,-3.339996c3.76001,-3.229996 8.900024,-3.020004 13.460022,-1.910004c2.799988,0.639999 5.880005,-3.809998 2.269989,-4.660004c-6.669983,-1.639999 -13.670013,-0.899994 -19.070007,3.600006c-3.809998,3.080002 -6.25,7.740005 -7.309998,12.509995c-1.269989,5.669998 -1.009979,12.820007 3.230011,17.169998c4.130005,4.290009 10.48999,4.550003 15.419983,2.060013c1.540009,1.009995 4.5,0.159988 4.820007,-1.800003c0.690002,-4.930008 1.910004,-9.75 3.290009,-14.520004c0.470001,-1.740005 -1.48999,-2.539993 -2.920013,-2.270004c-1.959991,0.37001 -4.029999,0.100006 -6.089996,0.150009c-1.379974,0.059998 -2.970001,0.849991 -3.389984,2.339996c-0.320007,1.320007 0.839996,2.380005 2.169983,2.330002c1.27002,-0.059998 2.649994,0 3.970001,0c-0.789978,2.910004 -1.47998,5.770004 -2.059998,8.690002c-1.959991,1.639999 -3.980011,2.37999 -6.630005,1.690002c-1.959991,-0.470001 -3.809998,-1.639999 -4.919983,-3.279999c-2.600006,-3.710007 -2.230011,-9.280014 -1.220001,-13.410004c0.73999,-3.230011 2.429993,-6.460007 4.97998,-8.690002zm31.420013,22.839996c-0.73999,1.270004 -2.01001,2.860001 -3.339996,3.389999c-0.26001,0.050003 -0.320007,0 -0.480011,0c-1.220001,0 -2.429993,-1.270004 -2.910004,-2.539993c-1.379974,-4.080002 0.480011,-9.059998 2.75,-12.400009c2.02002,-2.439987 4.190002,-4.610001 7.050018,-4.610001c0.579987,0 1.220001,0.210007 1.799988,0.420013c-0.529999,5.409988 -2.119995,11.019989 -4.869995,15.73999zm10.809998,0.369995c-0.850006,0.530014 -2.600006,1.590012 -3.179993,1.380005c-0.640015,-1.119995 -0.160004,-3.819992 0.049988,-5.039993c1.27002,-3.440002 2.119995,-7.100006 2.649994,-10.430008c0.110016,-0.959991 0.27002,-1.809998 0.320007,-2.759995c0,-1.270004 -0.160004,-1.960007 -1.169983,-2.490005c-12.02002,-6.149994 -24.790009,8.690002 -22.040009,20.350006c1.540009,6.349991 9.269989,8.160004 14.200012,4.23999c0.639984,-0.529999 1.269989,-1.169998 1.799988,-1.75c0.480011,1.480011 1.380005,2.860001 2.859985,3.440002c2.279999,0.800003 4.830017,-0.789993 6.630005,-1.959991c2.220001,-1.480011 0.740021,-6.830002 -2.119995,-4.980011zm22.779999,-20.079987c-3.179993,-1.01001 -5.929993,0 -8.419983,1.639999c0.049988,-0.110001 0.049988,-0.160004 0.049988,-0.210007c0.26001,-1.429993 -1.269989,-2.119995 -2.440002,-1.959991c-1.480011,0.159988 -2.649994,1.319992 -2.910004,2.75c-1.589996,7.579987 -2.649994,15.259995 -4.660004,22.789993c-0.850006,3.440002 4.450012,3.119995 5.130005,0.419998c1.440002,-5.619995 2.440002,-11.389999 3.550018,-17.110001c1.969971,-1.910004 4.139984,-4.559998 7.049988,-3.610001c2.600006,0.850006 5.940002,-3.699997 2.649994,-4.709991zm13.300018,19.709991c-0.740021,1.270004 -2.01001,2.860001 -3.340027,3.389999c-0.259979,0.050003 -0.319977,0 -0.470001,0c-1.220001,0 -2.439972,-1.270004 -2.919983,-2.539993c-1.380005,-4.080002 0.480011,-9.059998 2.76001,-12.400009c2.009979,-2.439987 4.179993,-4.610001 7.039978,-4.610001c0.589996,0 1.220001,0.210007 1.809998,0.420013c-0.529999,5.409988 -2.119995,11.019989 -4.879974,15.73999zm10.809998,0.369995c-0.850006,0.530014 -2.600006,1.590012 -3.180023,1.380005c-0.639984,-1.119995 -0.160004,-3.819992 0.050018,-5.039993c1.279999,-3.440002 2.119995,-7.100006 2.649994,-10.430008c0.109985,-0.959991 0.269989,-1.809998 0.320007,-2.759995c0,-1.270004 -0.160004,-1.960007 -1.160004,-2.490005c-12.029999,-6.149994 -24.800018,8.690002 -22.050018,20.350006c1.540009,6.349991 9.279999,8.160004 14.200012,4.23999c0.640015,-0.529999 1.269989,-1.169998 1.799988,-1.75c0.480011,1.480011 1.380005,2.860001 2.870026,3.440002c2.269989,0.800003 4.819977,-0.789993 6.619995,-1.959991c2.220001,-1.480011 0.73999,-6.830002 -2.119995,-4.980011zm13.559998,0.530014c-1.059998,0.529999 -2.170013,1.059998 -3.390015,1.009995c-2.699982,-0.160004 -2.01001,-4.880005 -1.690002,-6.680008c0.529999,-2.969986 1.899994,-6.089996 4.290009,-8.110001c2.220001,-1.959991 4.980011,-2.059998 7.519989,-1.219986c-0.470001,1.969986 -0.73999,3.979996 -1,5.939987c-0.269989,1.690002 -0.529999,3.440002 -0.799988,5.139999c-1.429993,1.480011 -3.119995,2.910004 -4.929993,3.920013zm10.440002,-19.5c0,0 0,0 0,0c-4.550018,-2.330002 -9.690002,-2.490005 -13.670013,0.899994c-3.549988,3.020004 -5.459991,7.839996 -6.200012,12.289993c-0.629974,4.029999 -0.470001,8.800003 2.600006,11.770004c2.01001,2.059998 5.350006,1.320007 7.580017,0.259995c0.899994,-0.369995 1.690002,-0.849991 2.48999,-1.37999c-0.480011,4.559998 -3.609985,7.690002 -5.940002,7.690002c-1.75,0.159988 -3.5,-0.320007 -5.190002,-1.01001c-1.329987,-0.529999 -3.019989,-0.209991 -3.970001,0.900009c-0.910004,1.009995 -0.639984,2.48999 0.630005,2.970001c4.399994,1.75 9.059998,2.279999 13.299988,-0.160004c3.390015,-1.960007 5.300018,-5.669998 6.460022,-9.169998c1.329987,-4.130005 1.970001,-8.470001 2.600006,-12.820007c0.269989,-1.800003 0.529999,-3.709991 0.849976,-5.509995c0.26001,-1.639999 0.480011,-2.860001 1.059998,-4.080002c0.790009,-1.850006 -0.899994,-2.75 -2.599976,-2.649994zm14.199982,4.23999c1.169983,-0.949997 3.659973,-1.849991 5.669983,-1.169998c1.800049,0.589996 3.02002,2.440002 1.48999,3.979996c-2.649963,2.650009 -7,2.650009 -10.599976,2.330002c0.100006,-0.369995 0.26001,-0.690002 0.369995,-1.059998c0.690002,-1.75 1.590027,-2.860001 3.070007,-4.080002zm8.690002,7.100006c3.079956,-2.169998 5.669983,-6.199997 3.709961,-9.910004c-1.799927,-3.389999 -6.089966,-4.179993 -9.539917,-3.279999c-3.119995,0.789993 -5.820038,2.539993 -7.940033,5.029999c-3.610016,4.289993 -5.040009,10.539993 -3.610016,16c1.490021,5.570007 6.360016,8.160004 11.869995,6.779999c1.170044,-0.259995 2.280029,-0.630005 3.340027,-1.209991c1.220032,-0.590012 2.48999,-1.650009 2.330017,-3.240005c-0.160034,-1.320007 -1.640015,-2.009995 -2.810059,-1.430008c-1.799927,0.900009 -3.649963,1.590012 -5.669983,1.170013c-1.319977,-0.210007 -2.539978,-1.330002 -3.22998,-2.490005c-0.790009,-1.270004 -1.160004,-2.759995 -1.27002,-4.350006c4.559998,0.270004 8.950012,-0.369995 12.820007,-3.069992z"/>
  </g>
  <g fill="#d80100" id="SvgjsG2627">
   <g transform="matrix(0.999999, 0.00112365, -0.00112365, 0.999999, 79.6696, -16.5381)" id="svg_2" fill="#d80100">
    <g id="svg_3" fill="#d80100">
     <polygon id="svg_4" points="-39.15087389945984,50.895904541015625 -54.54841113090515,66.72601318359375 -39.15087389945984,66.72601318359375 "/>
    </g>
    <g id="svg_5" fill="#d80100">
     <polygon id="svg_6" points="-38.217676877975464,50.21504211425781 -38.217676877975464,66.13026428222656 -20.95380473136902,50.21504211425781 "/>
    </g>
    <g id="svg_7" fill="#d80100">
     <polygon id="svg_8" points="-54.62616991996765,67.74732971191406 -21.49813151359558,105.53535461425781 -38.917567014694214,67.74732971191406 "/>
    </g>
    <g id="svg_9" fill="#d80100">
     <polygon id="svg_10" points="-37.906641721725464,67.74732971191406 -19.631767988204956,107.23751831054688 -1.356926679611206,67.74732971191406 "/>
    </g>
    <g id="svg_11" fill="#d80100">
     <polygon id="svg_12" points="-0.34598612785339355,67.74732971191406 -17.765434980392456,105.53535461425781 15.362614870071411,67.74732971191406 "/>
    </g>
    <g id="svg_13" fill="#d80100">
     <polygon id="svg_14" points="-0.19045329093933105,50.810791015625 -0.19045329093933105,66.72601318359375 15.284840822219849,66.72601318359375 "/>
    </g>
    <g id="svg_15" fill="#d80100">
     <polygon id="svg_16" points="-1.123619794845581,50.21504211425781 -18.309746503829956,50.21504211425781 -1.123619794845581,66.13026428222656 "/>
    </g>
    <g id="svg_17" fill="#d80100">
     <polygon id="svg_18" points="-1.901299238204956,66.72601318359375 -19.631767988204956,50.30015563964844 -37.36225390434265,66.72601318359375 "/>
    </g>
   </g>
  </g>
  <ellipse fill-opacity="0" ry="55.5" rx="55.5" id="svg_19" cy="58.15564" cx="59.961647" stroke-width="4" stroke="#d80100" fill="#ffffff"/>
 </g>
</svg>
